<?xml version="1.0" encoding="UTF-8"?>
<svg xmlns="http://www.w3.org/2000/svg" xmlns:xlink="http://www.w3.org/1999/xlink" width="343.877pt" height="294.984pt" viewBox="0 0 343.877 294.984" version="1.1">
<defs>
<clipPath id="clip1">
  <path d="M 3 0 L 343.878906 0 L 343.878906 294.984375 L 3 294.984375 Z M 3 0 "/>
</clipPath>
<clipPath id="clip2">
  <path d="M 12 0 L 336 0 L 336 294.984375 L 12 294.984375 Z M 12 0 "/>
</clipPath>
<clipPath id="clip3">
  <path d="M 6 0 L 341 0 L 341 294.984375 L 6 294.984375 Z M 6 0 "/>
</clipPath>
<clipPath id="clip4">
  <path d="M 15 0 L 332 0 L 332 294.984375 L 15 294.984375 Z M 15 0 "/>
</clipPath>
<clipPath id="clip5">
  <path d="M 25 0 L 322 0 L 322 294.984375 L 25 294.984375 Z M 25 0 "/>
</clipPath>
</defs>
<g id="surface1">
<g clip-path="url(#clip1)" clip-rule="nonzero">
<path style=" stroke:none;fill-rule:nonzero;fill:rgb(87.600708%,95.896912%,96.934509%);fill-opacity:1;" d="M 88.558594 294.785156 L 3.519531 147.488281 L 88.558594 0.195312 L 258.640625 0.195312 L 343.679688 147.488281 L 258.640625 294.785156 Z M 88.558594 294.785156 "/>
</g>
<path style="fill:none;stroke-width:0.3985;stroke-linecap:butt;stroke-linejoin:miter;stroke:rgb(0%,0%,0%);stroke-opacity:1;stroke-miterlimit:10;" d="M -0.00040625 -0.00015625 L -85.039469 147.296719 L -0.00040625 294.589687 L 170.081625 294.589687 L 255.120688 147.296719 L 170.081625 -0.00015625 Z M -0.00040625 -0.00015625 " transform="matrix(1,0,0,-1,88.559,294.785)"/>
<g clip-path="url(#clip2)" clip-rule="nonzero">
<path style=" stroke:none;fill-rule:nonzero;fill:rgb(81.401062%,93.850708%,95.484924%);fill-opacity:1;" d="M 80.054688 280.054688 L 12.023438 132.761719 L 105.566406 0.195312 L 267.144531 14.925781 L 335.175781 162.21875 L 241.628906 294.785156 Z M 80.054688 280.054688 "/>
</g>
<g clip-path="url(#clip3)" clip-rule="nonzero">
<path style="fill:none;stroke-width:0.3985;stroke-linecap:butt;stroke-linejoin:miter;stroke:rgb(0%,0%,0%);stroke-opacity:1;stroke-miterlimit:10;" d="M -8.504312 14.730312 L -76.535562 162.023281 L 17.007406 294.589687 L 178.585531 279.859219 L 246.616781 132.56625 L 153.069906 -0.00015625 Z M -8.504312 14.730312 " transform="matrix(1,0,0,-1,88.559,294.785)"/>
</g>
<path style=" stroke:none;fill-rule:nonzero;fill:rgb(75.201416%,91.807556%,94.093323%);fill-opacity:1;" d="M 73.25 265.324219 L 21.378906 119.503906 L 121.726562 1.667969 L 273.949219 29.65625 L 325.820312 175.476562 L 225.472656 293.3125 Z M 73.25 265.324219 "/>
<g clip-path="url(#clip4)" clip-rule="nonzero">
<path style="fill:none;stroke-width:0.3985;stroke-linecap:butt;stroke-linejoin:miter;stroke:rgb(0%,0%,0%);stroke-opacity:1;stroke-miterlimit:10;" d="M -15.309 29.460781 L -67.180094 175.281094 L 33.167563 293.117031 L 185.390219 265.12875 L 237.261313 119.308437 L 136.913656 1.4725 Z M -15.309 29.460781 " transform="matrix(1,0,0,-1,88.559,294.785)"/>
</g>
<path style=" stroke:none;fill-rule:nonzero;fill:rgb(69.000244%,89.767456%,92.755127%);fill-opacity:1;" d="M 68.0625 250.742188 L 31.414062 107.71875 L 136.949219 4.46875 L 279.136719 44.238281 L 315.785156 187.261719 L 210.25 290.511719 Z M 68.0625 250.742188 "/>
<g clip-path="url(#clip5)" clip-rule="nonzero">
<path style="fill:none;stroke-width:0.3985;stroke-linecap:butt;stroke-linejoin:miter;stroke:rgb(0%,0%,0%);stroke-opacity:1;stroke-miterlimit:10;" d="M -20.4965 44.042812 L -57.144937 187.06625 L 48.390219 290.31625 L 190.577719 250.546719 L 227.226156 107.523281 L 121.691 4.273281 Z M -20.4965 44.042812 " transform="matrix(1,0,0,-1,88.559,294.785)"/>
</g>
<path style="fill-rule:nonzero;fill:rgb(62.800598%,87.731934%,91.47644%);fill-opacity:1;stroke-width:0.3985;stroke-linecap:butt;stroke-linejoin:miter;stroke:rgb(0%,0%,0%);stroke-opacity:1;stroke-miterlimit:10;" d="M -24.160562 58.3475 L -46.59025 197.390469 L 62.608969 286.339687 L 194.241781 236.242031 L 216.671469 97.199062 L 107.47225 8.249844 Z M -24.160562 58.3475 " transform="matrix(1,0,0,-1,88.559,294.785)"/>
<path style="fill-rule:nonzero;fill:rgb(56.602478%,85.700989%,90.249634%);fill-opacity:1;stroke-width:0.3985;stroke-linecap:butt;stroke-linejoin:miter;stroke:rgb(0%,0%,0%);stroke-opacity:1;stroke-miterlimit:10;" d="M -26.40275 72.25375 L -35.668375 206.288906 L 75.773031 281.331875 L 196.483969 222.335781 L 205.749594 88.300625 L 94.308188 13.257656 Z M -26.40275 72.25375 " transform="matrix(1,0,0,-1,88.559,294.785)"/>
<path style="fill-rule:nonzero;fill:rgb(50.401306%,83.67157%,89.082336%);fill-opacity:1;stroke-width:0.3985;stroke-linecap:butt;stroke-linejoin:miter;stroke:rgb(0%,0%,0%);stroke-opacity:1;stroke-miterlimit:10;" d="M -27.332437 85.656094 L -24.523844 213.792812 L 87.84725 275.429531 L 197.40975 208.933437 L 194.605063 80.796719 L 82.233969 19.16 Z M -27.332437 85.656094 " transform="matrix(1,0,0,-1,88.559,294.785)"/>
<path style="fill-rule:nonzero;fill:rgb(44.200134%,81.645203%,87.969971%);fill-opacity:1;stroke-width:0.3985;stroke-linecap:butt;stroke-linejoin:miter;stroke:rgb(0%,0%,0%);stroke-opacity:1;stroke-miterlimit:10;" d="M -27.051187 98.4725 L -13.285562 219.956875 L 98.804281 268.781094 L 197.132406 196.117031 L 183.366781 74.632656 L 71.276938 25.808437 Z M -27.051187 98.4725 " transform="matrix(1,0,0,-1,88.559,294.785)"/>
<path style="fill-rule:nonzero;fill:rgb(38.000488%,79.623413%,86.912537%);fill-opacity:1;stroke-width:0.3985;stroke-linecap:butt;stroke-linejoin:miter;stroke:rgb(0%,0%,0%);stroke-opacity:1;stroke-miterlimit:10;" d="M -25.672281 110.620937 L -2.078531 224.839687 L 108.636313 261.515469 L 195.7535 183.968594 L 172.15975 69.749844 L 61.444906 33.074062 Z M -25.672281 110.620937 " transform="matrix(1,0,0,-1,88.559,294.785)"/>
<path style="fill-rule:nonzero;fill:rgb(31.802368%,77.606201%,85.913086%);fill-opacity:1;stroke-width:0.3985;stroke-linecap:butt;stroke-linejoin:miter;stroke:rgb(0%,0%,0%);stroke-opacity:1;stroke-miterlimit:10;" d="M -23.312906 122.042812 L 8.995688 228.507656 L 117.34725 253.757656 L 193.394125 172.546719 L 161.085531 66.081875 L 52.730063 40.831875 Z M -23.312906 122.042812 " transform="matrix(1,0,0,-1,88.559,294.785)"/>
<path style="fill-rule:nonzero;fill:rgb(25.601196%,75.590515%,84.967041%);fill-opacity:1;stroke-width:0.3985;stroke-linecap:butt;stroke-linejoin:miter;stroke:rgb(0%,0%,0%);stroke-opacity:1;stroke-miterlimit:10;" d="M -20.082437 132.69125 L 19.831625 231.031094 L 124.952719 245.636562 L 190.163656 161.898281 L 150.249594 63.558437 L 45.1285 48.952969 Z M -20.082437 132.69125 " transform="matrix(1,0,0,-1,88.559,294.785)"/>
<path style="fill-rule:nonzero;fill:rgb(19.400024%,73.579407%,84.080505%);fill-opacity:1;stroke-width:0.3985;stroke-linecap:butt;stroke-linejoin:miter;stroke:rgb(0%,0%,0%);stroke-opacity:1;stroke-miterlimit:10;" d="M -16.09025 142.523281 L 30.343344 232.492031 L 131.476156 237.261562 L 186.171469 152.06625 L 139.737875 62.0975 L 38.605063 57.327969 Z M -16.09025 142.523281 " transform="matrix(1,0,0,-1,88.559,294.785)"/>
<path style="fill-rule:nonzero;fill:rgb(13.200378%,71.57135%,83.24585%);fill-opacity:1;stroke-width:0.3985;stroke-linecap:butt;stroke-linejoin:miter;stroke:rgb(0%,0%,0%);stroke-opacity:1;stroke-miterlimit:10;" d="M -11.445719 151.523281 L 40.456625 232.968594 L 136.944906 228.742031 L 181.526938 143.06625 L 129.624594 61.620937 L 33.136313 65.8475 Z M -11.445719 151.523281 " transform="matrix(1,0,0,-1,88.559,294.785)"/>
<path style="fill-rule:nonzero;fill:rgb(7.000732%,69.567871%,82.469177%);fill-opacity:1;stroke-width:0.3985;stroke-linecap:butt;stroke-linejoin:miter;stroke:rgb(0%,0%,0%);stroke-opacity:1;stroke-miterlimit:10;" d="M -6.258219 159.667812 L 50.105063 232.546719 L 141.405844 220.175625 L 176.339438 134.921719 L 119.97225 62.042812 L 28.675375 74.413906 Z M -6.258219 159.667812 " transform="matrix(1,0,0,-1,88.559,294.785)"/>
<path style="fill-rule:nonzero;fill:rgb(0.801086%,67.567444%,81.748962%);fill-opacity:1;stroke-width:0.3985;stroke-linecap:butt;stroke-linejoin:miter;stroke:rgb(0%,0%,0%);stroke-opacity:1;stroke-miterlimit:10;" d="M -0.6215 166.956875 L 59.237875 231.308437 L 144.898031 211.648281 L 170.702719 127.632656 L 110.843344 63.281094 L 25.183188 82.94125 Z M -0.6215 166.956875 " transform="matrix(1,0,0,-1,88.559,294.785)"/>
<path style="fill-rule:nonzero;fill:rgb(0%,67.280579%,81.007385%);fill-opacity:1;stroke-width:0.3985;stroke-linecap:butt;stroke-linejoin:miter;stroke:rgb(0%,0%,0%);stroke-opacity:1;stroke-miterlimit:10;" d="M 5.366781 173.390469 L 67.804281 229.343594 L 147.476156 203.245937 L 164.714438 121.199062 L 102.276938 65.245937 L 22.601156 91.343594 Z M 5.366781 173.390469 " transform="matrix(1,0,0,-1,88.559,294.785)"/>
<path style="fill-rule:nonzero;fill:rgb(0%,67.247009%,80.259705%);fill-opacity:1;stroke-width:0.3985;stroke-linecap:butt;stroke-linejoin:miter;stroke:rgb(0%,0%,0%);stroke-opacity:1;stroke-miterlimit:10;" d="M 11.608969 178.988125 L 75.773031 226.734219 L 149.202719 195.042812 L 158.47225 115.601406 L 94.308188 67.855312 L 20.8785 99.546719 Z M 11.608969 178.988125 " transform="matrix(1,0,0,-1,88.559,294.785)"/>
<path style="fill-rule:nonzero;fill:rgb(0%,67.214966%,79.512024%);fill-opacity:1;stroke-width:0.3985;stroke-linecap:butt;stroke-linejoin:miter;stroke:rgb(0%,0%,0%);stroke-opacity:1;stroke-miterlimit:10;" d="M 18.026938 183.761562 L 83.116781 223.562344 L 150.1285 187.0975 L 152.054281 110.827969 L 86.964438 71.027187 L 19.952719 107.492031 Z M 18.026938 183.761562 " transform="matrix(1,0,0,-1,88.559,294.785)"/>
<path style="fill-rule:nonzero;fill:rgb(0%,67.181396%,78.764343%);fill-opacity:1;stroke-width:0.3985;stroke-linecap:butt;stroke-linejoin:miter;stroke:rgb(0%,0%,0%);stroke-opacity:1;stroke-miterlimit:10;" d="M 24.53475 187.742031 L 89.816 219.917812 L 150.319906 179.468594 L 145.546469 106.8475 L 80.265219 74.671719 L 19.761313 115.120937 Z M 24.53475 187.742031 " transform="matrix(1,0,0,-1,88.559,294.785)"/>
<path style="fill-rule:nonzero;fill:rgb(0%,67.149353%,78.016663%);fill-opacity:1;stroke-width:0.3985;stroke-linecap:butt;stroke-linejoin:miter;stroke:rgb(0%,0%,0%);stroke-opacity:1;stroke-miterlimit:10;" d="M 31.066 190.960781 L 95.866781 215.870937 L 149.843344 172.206875 L 139.015219 103.62875 L 74.214438 78.718594 L 20.237875 122.382656 Z M 31.066 190.960781 " transform="matrix(1,0,0,-1,88.559,294.785)"/>
<path style="fill-rule:nonzero;fill:rgb(0%,67.115784%,77.267456%);fill-opacity:1;stroke-width:0.3985;stroke-linecap:butt;stroke-linejoin:miter;stroke:rgb(0%,0%,0%);stroke-opacity:1;stroke-miterlimit:10;" d="M 37.546469 193.452969 L 101.265219 211.50375 L 148.761313 165.3475 L 132.53475 101.136562 L 68.816 83.085781 L 21.319906 129.242031 Z M 37.546469 193.452969 " transform="matrix(1,0,0,-1,88.559,294.785)"/>
<path style="fill-rule:nonzero;fill:rgb(0%,67.08374%,76.51825%);fill-opacity:1;stroke-width:0.3985;stroke-linecap:butt;stroke-linejoin:miter;stroke:rgb(0%,0%,0%);stroke-opacity:1;stroke-miterlimit:10;" d="M 43.917563 195.257656 L 106.015219 206.890469 L 147.140219 158.925625 L 126.163656 99.331875 L 64.066 87.699062 L 22.941 135.663906 Z M 43.917563 195.257656 " transform="matrix(1,0,0,-1,88.559,294.785)"/>
<path style="fill-rule:nonzero;fill:rgb(0%,67.050171%,75.770569%);fill-opacity:1;stroke-width:0.3985;stroke-linecap:butt;stroke-linejoin:miter;stroke:rgb(0%,0%,0%);stroke-opacity:1;stroke-miterlimit:10;" d="M 50.1285 196.421719 L 110.1285 202.093594 L 145.042563 152.968594 L 119.952719 98.167812 L 59.952719 92.495937 L 25.038656 141.620937 Z M 50.1285 196.421719 " transform="matrix(1,0,0,-1,88.559,294.785)"/>
<path style="fill-rule:nonzero;fill:rgb(0%,67.016602%,75.021362%);fill-opacity:1;stroke-width:0.3985;stroke-linecap:butt;stroke-linejoin:miter;stroke:rgb(0%,0%,0%);stroke-opacity:1;stroke-miterlimit:10;" d="M 56.1285 196.988125 L 113.620688 197.179531 L 142.530844 147.488125 L 113.952719 97.601406 L 56.460531 97.41 L 27.550375 147.101406 Z M 56.1285 196.988125 " transform="matrix(1,0,0,-1,88.559,294.785)"/>
<path style="fill-rule:nonzero;fill:rgb(0%,66.984558%,74.275208%);fill-opacity:1;stroke-width:0.3985;stroke-linecap:butt;stroke-linejoin:miter;stroke:rgb(0%,0%,0%);stroke-opacity:1;stroke-miterlimit:10;" d="M 61.8785 197.007656 L 116.511313 192.210781 L 139.675375 142.499844 L 108.202719 97.581875 L 53.569906 102.37875 L 30.405844 152.089687 Z M 61.8785 197.007656 " transform="matrix(1,0,0,-1,88.559,294.785)"/>
<path style="fill-rule:nonzero;fill:rgb(0%,66.950989%,73.524475%);fill-opacity:1;stroke-width:0.3985;stroke-linecap:butt;stroke-linejoin:miter;stroke:rgb(0%,0%,0%);stroke-opacity:1;stroke-miterlimit:10;" d="M 67.339438 196.527187 L 118.827719 187.238125 L 136.526938 138.007656 L 102.737875 98.062344 L 51.2535 107.351406 L 33.554281 156.581875 Z M 67.339438 196.527187 " transform="matrix(1,0,0,-1,88.559,294.785)"/>
<path style="fill-rule:nonzero;fill:rgb(0%,66.918945%,72.77832%);fill-opacity:1;stroke-width:0.3985;stroke-linecap:butt;stroke-linejoin:miter;stroke:rgb(0%,0%,0%);stroke-opacity:1;stroke-miterlimit:10;" d="M 72.491781 195.5975 L 120.59725 182.31625 L 133.148031 134.011562 L 97.589438 98.992031 L 49.483969 112.273281 L 36.933188 160.577969 Z M 72.491781 195.5975 " transform="matrix(1,0,0,-1,88.559,294.785)"/>
<path style="fill-rule:nonzero;fill:rgb(0%,66.885376%,72.029114%);fill-opacity:1;stroke-width:0.3985;stroke-linecap:butt;stroke-linejoin:miter;stroke:rgb(0%,0%,0%);stroke-opacity:1;stroke-miterlimit:10;" d="M 77.300375 194.269375 L 121.851156 177.484219 L 129.593344 130.511562 L 92.780844 100.320156 L 48.230063 117.105312 L 40.487875 164.077969 Z M 77.300375 194.269375 " transform="matrix(1,0,0,-1,88.559,294.785)"/>
<path style="fill-rule:nonzero;fill:rgb(0%,66.853333%,71.279907%);fill-opacity:1;stroke-width:0.3985;stroke-linecap:butt;stroke-linejoin:miter;stroke:rgb(0%,0%,0%);stroke-opacity:1;stroke-miterlimit:10;" d="M 81.757406 192.589687 L 122.624594 172.788906 L 125.90975 127.492031 L 88.323813 101.999844 L 47.452719 121.800625 L 44.171469 167.0975 Z M 81.757406 192.589687 " transform="matrix(1,0,0,-1,88.559,294.785)"/>
<path style="fill-rule:nonzero;fill:rgb(0%,66.819763%,70.532227%);fill-opacity:1;stroke-width:0.3985;stroke-linecap:butt;stroke-linejoin:miter;stroke:rgb(0%,0%,0%);stroke-opacity:1;stroke-miterlimit:10;" d="M 85.843344 190.609219 L 122.956625 168.257656 L 122.151938 124.94125 L 84.237875 103.980312 L 47.124594 126.331875 L 47.929281 169.648281 Z M 85.843344 190.609219 " transform="matrix(1,0,0,-1,88.559,294.785)"/>
<path style="fill-rule:nonzero;fill:rgb(0%,66.78772%,69.78302%);fill-opacity:1;stroke-width:0.3985;stroke-linecap:butt;stroke-linejoin:miter;stroke:rgb(0%,0%,0%);stroke-opacity:1;stroke-miterlimit:10;" d="M 89.554281 188.374844 L 122.874594 163.925625 L 118.358969 122.843594 L 80.526938 106.214687 L 47.206625 130.663906 L 51.72225 171.745937 Z M 89.554281 188.374844 " transform="matrix(1,0,0,-1,88.559,294.785)"/>
<path style="fill-rule:nonzero;fill:rgb(0%,66.75415%,69.036865%);fill-opacity:1;stroke-width:0.3985;stroke-linecap:butt;stroke-linejoin:miter;stroke:rgb(0%,0%,0%);stroke-opacity:1;stroke-miterlimit:10;" d="M 92.886313 185.929531 L 122.421469 159.81625 L 114.577719 121.183437 L 77.194906 108.66 L 47.65975 134.773281 L 55.5035 173.406094 Z M 92.886313 185.929531 " transform="matrix(1,0,0,-1,88.559,294.785)"/>
<path style="fill-rule:nonzero;fill:rgb(0%,66.722107%,68.287659%);fill-opacity:1;stroke-width:0.3985;stroke-linecap:butt;stroke-linejoin:miter;stroke:rgb(0%,0%,0%);stroke-opacity:1;stroke-miterlimit:10;" d="M 95.839438 183.320156 L 121.640219 155.952969 L 110.839438 119.929531 L 74.241781 111.269375 L 48.441 138.636562 L 59.241781 174.66 Z M 95.839438 183.320156 " transform="matrix(1,0,0,-1,88.559,294.785)"/>
<path style="fill-rule:nonzero;fill:rgb(0%,66.688538%,67.539978%);fill-opacity:1;stroke-width:0.3985;stroke-linecap:butt;stroke-linejoin:miter;stroke:rgb(0%,0%,0%);stroke-opacity:1;stroke-miterlimit:10;" d="M 98.421469 180.581875 L 120.558188 152.351406 L 107.179281 119.062344 L 71.65975 114.007656 L 49.523031 142.238125 L 62.901938 175.527187 Z M 98.421469 180.581875 " transform="matrix(1,0,0,-1,88.559,294.785)"/>
<path style="fill-rule:nonzero;fill:rgb(0%,66.654968%,66.790771%);fill-opacity:1;stroke-width:0.3985;stroke-linecap:butt;stroke-linejoin:miter;stroke:rgb(0%,0%,0%);stroke-opacity:1;stroke-miterlimit:10;" d="M 100.636313 177.757656 L 119.218344 149.023281 L 103.624594 118.558437 L 69.444906 116.831875 L 50.858969 145.56625 L 66.456625 176.031094 Z M 100.636313 177.757656 " transform="matrix(1,0,0,-1,88.559,294.785)"/>
<path style="fill-rule:nonzero;fill:rgb(0%,66.622925%,66.043091%);fill-opacity:1;stroke-width:0.3985;stroke-linecap:butt;stroke-linejoin:miter;stroke:rgb(0%,0%,0%);stroke-opacity:1;stroke-miterlimit:10;" d="M 102.491781 174.886562 L 117.65975 145.976406 L 100.206625 118.386562 L 67.589438 119.702969 L 52.421469 148.613125 L 69.874594 176.202969 Z M 102.491781 174.886562 " transform="matrix(1,0,0,-1,88.559,294.785)"/>
<path style="fill-rule:nonzero;fill:rgb(0%,66.589355%,65.293884%);fill-opacity:1;stroke-width:0.3985;stroke-linecap:butt;stroke-linejoin:miter;stroke:rgb(0%,0%,0%);stroke-opacity:1;stroke-miterlimit:10;" d="M 104.011313 171.992031 L 115.913656 143.214687 L 96.944906 118.515469 L 66.069906 122.5975 L 54.167563 151.374844 L 73.136313 176.074062 Z M 104.011313 171.992031 " transform="matrix(1,0,0,-1,88.559,294.785)"/>
<path style="fill-rule:nonzero;fill:rgb(0%,66.557312%,64.546204%);fill-opacity:1;stroke-width:0.3985;stroke-linecap:butt;stroke-linejoin:miter;stroke:rgb(0%,0%,0%);stroke-opacity:1;stroke-miterlimit:10;" d="M 105.198813 169.117031 L 114.019125 140.745937 L 93.858969 118.925625 L 64.8785 125.4725 L 56.062094 153.843594 L 76.22225 175.663906 Z M 105.198813 169.117031 " transform="matrix(1,0,0,-1,88.559,294.785)"/>
<path style="fill-rule:nonzero;fill:rgb(0%,66.523743%,63.798523%);fill-opacity:1;stroke-width:0.3985;stroke-linecap:butt;stroke-linejoin:miter;stroke:rgb(0%,0%,0%);stroke-opacity:1;stroke-miterlimit:10;" d="M 106.081625 166.277187 L 112.0035 138.562344 L 90.960531 119.577969 L 63.999594 128.312344 L 58.077719 156.027187 L 79.120688 175.011562 Z M 106.081625 166.277187 " transform="matrix(1,0,0,-1,88.559,294.785)"/>
<path style="fill-rule:nonzero;fill:rgb(0%,66.491699%,63.050842%);fill-opacity:1;stroke-width:0.3985;stroke-linecap:butt;stroke-linejoin:miter;stroke:rgb(0%,0%,0%);stroke-opacity:1;stroke-miterlimit:10;" d="M 106.675375 163.507656 L 109.898031 136.663906 L 88.265219 120.452969 L 63.405844 131.081875 L 60.183188 157.925625 L 81.816 174.136562 Z M 106.675375 163.507656 " transform="matrix(1,0,0,-1,88.559,294.785)"/>
<path style="fill-rule:nonzero;fill:rgb(0%,66.45813%,62.301636%);fill-opacity:1;stroke-width:0.3985;stroke-linecap:butt;stroke-linejoin:miter;stroke:rgb(0%,0%,0%);stroke-opacity:1;stroke-miterlimit:10;" d="M 106.995688 160.824062 L 107.733969 135.042812 L 85.776938 121.515469 L 63.085531 133.765469 L 62.34725 159.546719 L 84.304281 173.074062 Z M 106.995688 160.824062 " transform="matrix(1,0,0,-1,88.559,294.785)"/>
<path style="fill-rule:nonzero;fill:rgb(0%,66.426086%,61.552429%);fill-opacity:1;stroke-width:0.3985;stroke-linecap:butt;stroke-linejoin:miter;stroke:rgb(0%,0%,0%);stroke-opacity:1;stroke-miterlimit:10;" d="M 107.069906 158.245937 L 105.538656 133.69125 L 83.507406 122.742031 L 63.011313 136.343594 L 64.542563 160.898281 L 86.573813 171.8475 Z M 107.069906 158.245937 " transform="matrix(1,0,0,-1,88.559,294.785)"/>
<path style="fill-rule:nonzero;fill:rgb(0%,66.392517%,60.804749%);fill-opacity:1;stroke-width:0.3985;stroke-linecap:butt;stroke-linejoin:miter;stroke:rgb(0%,0%,0%);stroke-opacity:1;stroke-miterlimit:10;" d="M 106.917563 155.788906 L 103.335531 132.5975 L 81.456625 124.101406 L 63.163656 138.800625 L 66.745688 161.992031 L 88.620688 170.488125 Z M 106.917563 155.788906 " transform="matrix(1,0,0,-1,88.559,294.785)"/>
<path style="fill-rule:nonzero;fill:rgb(0%,66.358948%,60.055542%);fill-opacity:1;stroke-width:0.3985;stroke-linecap:butt;stroke-linejoin:miter;stroke:rgb(0%,0%,0%);stroke-opacity:1;stroke-miterlimit:10;" d="M 106.558188 153.468594 L 101.148031 131.745937 L 79.6285 125.570156 L 63.523031 141.120937 L 68.933188 162.843594 L 90.452719 169.019375 Z M 106.558188 153.468594 " transform="matrix(1,0,0,-1,88.559,294.785)"/>
<path style="fill-rule:nonzero;fill:rgb(0%,66.326904%,59.309387%);fill-opacity:1;stroke-width:0.3985;stroke-linecap:butt;stroke-linejoin:miter;stroke:rgb(0%,0%,0%);stroke-opacity:1;stroke-miterlimit:10;" d="M 106.019125 151.296719 L 98.995688 131.12875 L 78.019125 127.124844 L 64.062094 143.292812 L 71.085531 163.460781 L 92.062094 167.464687 Z M 106.019125 151.296719 " transform="matrix(1,0,0,-1,88.559,294.785)"/>
<path style="fill-rule:nonzero;fill:rgb(0%,66.293335%,58.560181%);fill-opacity:1;stroke-width:0.3985;stroke-linecap:butt;stroke-linejoin:miter;stroke:rgb(0%,0%,0%);stroke-opacity:1;stroke-miterlimit:10;" d="M 105.316 149.281094 L 96.898031 130.730312 L 76.620688 128.742031 L 64.765219 145.308437 L 73.183188 163.859219 L 93.456625 165.8475 Z M 105.316 149.281094 " transform="matrix(1,0,0,-1,88.559,294.785)"/>
<path style="fill-rule:nonzero;fill:rgb(0%,66.261292%,57.8125%);fill-opacity:1;stroke-width:0.3985;stroke-linecap:butt;stroke-linejoin:miter;stroke:rgb(0%,0%,0%);stroke-opacity:1;stroke-miterlimit:10;" d="M 104.47225 147.425625 L 94.870688 130.531094 L 75.437094 130.398281 L 65.608969 147.163906 L 75.210531 164.058437 L 94.644125 164.19125 Z M 104.47225 147.425625 " transform="matrix(1,0,0,-1,88.559,294.785)"/>
<path style="fill-rule:nonzero;fill:rgb(0%,66.227722%,57.063293%);fill-opacity:1;stroke-width:0.3985;stroke-linecap:butt;stroke-linejoin:miter;stroke:rgb(0%,0%,0%);stroke-opacity:1;stroke-miterlimit:10;" d="M 103.515219 145.734219 L 92.925375 130.515469 L 74.452719 132.077969 L 66.566 148.855312 L 77.155844 164.074062 L 95.6285 162.511562 Z M 103.515219 145.734219 " transform="matrix(1,0,0,-1,88.559,294.785)"/>
<path style="fill-rule:nonzero;fill:rgb(0%,66.195679%,56.314087%);fill-opacity:1;stroke-width:0.3985;stroke-linecap:butt;stroke-linejoin:miter;stroke:rgb(0%,0%,0%);stroke-opacity:1;stroke-miterlimit:10;" d="M 102.452719 144.214687 L 91.077719 130.671719 L 73.663656 133.75375 L 67.624594 150.374844 L 79.0035 163.917812 L 96.417563 160.835781 Z M 102.452719 144.214687 " transform="matrix(1,0,0,-1,88.559,294.785)"/>
<path style="fill-rule:nonzero;fill:rgb(0%,66.162109%,55.566406%);fill-opacity:1;stroke-width:0.3985;stroke-linecap:butt;stroke-linejoin:miter;stroke:rgb(0%,0%,0%);stroke-opacity:1;stroke-miterlimit:10;" d="M 101.316 142.859219 L 89.339438 130.980312 L 73.062094 135.417812 L 68.765219 151.730312 L 80.741781 163.609219 L 97.019125 159.171719 Z M 101.316 142.859219 " transform="matrix(1,0,0,-1,88.559,294.785)"/>
<path style="fill-rule:nonzero;fill:rgb(0%,66.130066%,54.818726%);fill-opacity:1;stroke-width:0.3985;stroke-linecap:butt;stroke-linejoin:miter;stroke:rgb(0%,0%,0%);stroke-opacity:1;stroke-miterlimit:10;" d="M 100.120688 141.671719 L 87.710531 131.425625 L 72.632406 137.046719 L 69.960531 152.917812 L 82.370688 163.163906 L 97.448813 157.542812 Z M 100.120688 141.671719 " transform="matrix(1,0,0,-1,88.559,294.785)"/>
<path style="fill-rule:nonzero;fill:rgb(0%,66.096497%,54.071045%);fill-opacity:1;stroke-width:0.3985;stroke-linecap:butt;stroke-linejoin:miter;stroke:rgb(0%,0%,0%);stroke-opacity:1;stroke-miterlimit:10;" d="M 98.8785 140.648281 L 86.202719 131.988125 L 72.362875 138.636562 L 71.202719 153.94125 L 83.8785 162.601406 L 97.718344 155.952969 Z M 98.8785 140.648281 " transform="matrix(1,0,0,-1,88.559,294.785)"/>
<path style="fill-rule:nonzero;fill:rgb(0%,66.064453%,53.321838%);fill-opacity:1;stroke-width:0.3985;stroke-linecap:butt;stroke-linejoin:miter;stroke:rgb(0%,0%,0%);stroke-opacity:1;stroke-miterlimit:10;" d="M 97.608969 139.781094 L 84.819906 132.652187 L 72.249594 140.167812 L 72.47225 154.808437 L 85.261313 161.937344 L 97.831625 154.421719 Z M 97.608969 139.781094 " transform="matrix(1,0,0,-1,88.559,294.785)"/>
<path style="fill-rule:nonzero;fill:rgb(0%,66.030884%,52.574158%);fill-opacity:1;stroke-width:0.3985;stroke-linecap:butt;stroke-linejoin:miter;stroke:rgb(0%,0%,0%);stroke-opacity:1;stroke-miterlimit:10;" d="M 96.331625 139.06625 L 83.562094 133.402187 L 72.269125 141.62875 L 73.749594 155.523281 L 86.519125 161.187344 L 97.812094 152.960781 Z M 96.331625 139.06625 " transform="matrix(1,0,0,-1,88.559,294.785)"/>
<path style="fill-rule:nonzero;fill:rgb(0%,65.997314%,51.824951%);fill-opacity:1;stroke-width:0.3985;stroke-linecap:butt;stroke-linejoin:miter;stroke:rgb(0%,0%,0%);stroke-opacity:1;stroke-miterlimit:10;" d="M 95.054281 138.499844 L 82.433188 134.226406 L 72.417563 143.019375 L 75.026938 156.089687 L 87.648031 160.363125 L 97.663656 151.570156 Z M 95.054281 138.499844 " transform="matrix(1,0,0,-1,88.559,294.785)"/>
<path style="fill-rule:nonzero;fill:rgb(0%,65.965271%,51.077271%);fill-opacity:1;stroke-width:0.3985;stroke-linecap:butt;stroke-linejoin:miter;stroke:rgb(0%,0%,0%);stroke-opacity:1;stroke-miterlimit:10;" d="M 93.792563 138.074062 L 81.429281 135.105312 L 72.679281 144.327969 L 76.288656 156.515469 L 88.651938 159.484219 L 97.401938 150.261562 Z M 93.792563 138.074062 " transform="matrix(1,0,0,-1,88.559,294.785)"/>
<path style="fill-rule:nonzero;fill:rgb(0%,65.931702%,50.328064%);fill-opacity:1;stroke-width:0.3985;stroke-linecap:butt;stroke-linejoin:miter;stroke:rgb(0%,0%,0%);stroke-opacity:1;stroke-miterlimit:10;" d="M 92.554281 137.777187 L 80.554281 136.027187 L 73.038656 145.546719 L 77.526938 156.812344 L 89.526938 158.562344 L 97.038656 149.042812 Z M 92.554281 137.777187 " transform="matrix(1,0,0,-1,88.559,294.785)"/>
<path style="fill-rule:nonzero;fill:rgb(0%,65.899658%,49.580383%);fill-opacity:1;stroke-width:0.3985;stroke-linecap:butt;stroke-linejoin:miter;stroke:rgb(0%,0%,0%);stroke-opacity:1;stroke-miterlimit:10;" d="M 91.355063 137.601406 L 79.804281 136.980312 L 73.487875 146.671719 L 78.726156 156.988125 L 90.276938 157.609219 L 96.593344 147.917812 Z M 91.355063 137.601406 " transform="matrix(1,0,0,-1,88.559,294.785)"/>
<path style="fill-rule:nonzero;fill:rgb(0%,65.866089%,48.832703%);fill-opacity:1;stroke-width:0.3985;stroke-linecap:butt;stroke-linejoin:miter;stroke:rgb(0%,0%,0%);stroke-opacity:1;stroke-miterlimit:10;" d="M 90.198813 137.538906 L 79.171469 137.949062 L 74.011313 147.702969 L 79.882406 157.050625 L 90.90975 156.640469 L 96.069906 146.886562 Z M 90.198813 137.538906 " transform="matrix(1,0,0,-1,88.559,294.785)"/>
<path style="fill-rule:nonzero;fill:rgb(0%,65.834045%,48.085022%);fill-opacity:1;stroke-width:0.3985;stroke-linecap:butt;stroke-linejoin:miter;stroke:rgb(0%,0%,0%);stroke-opacity:1;stroke-miterlimit:10;" d="M 89.09725 137.581875 L 78.655844 138.925625 L 74.601156 148.636562 L 80.983969 157.007656 L 91.425375 155.663906 L 95.480063 145.952969 Z M 89.09725 137.581875 " transform="matrix(1,0,0,-1,88.559,294.785)"/>
<path style="fill-rule:nonzero;fill:rgb(0%,65.800476%,47.335815%);fill-opacity:1;stroke-width:0.3985;stroke-linecap:butt;stroke-linejoin:miter;stroke:rgb(0%,0%,0%);stroke-opacity:1;stroke-miterlimit:10;" d="M 88.054281 137.714687 L 78.249594 139.894375 L 75.237875 149.476406 L 82.026938 156.874844 L 91.831625 154.695156 L 94.843344 145.113125 Z M 88.054281 137.714687 " transform="matrix(1,0,0,-1,88.559,294.785)"/>
<path style="fill-rule:nonzero;fill:rgb(0%,65.768433%,46.586609%);fill-opacity:1;stroke-width:0.3985;stroke-linecap:butt;stroke-linejoin:miter;stroke:rgb(0%,0%,0%);stroke-opacity:1;stroke-miterlimit:10;" d="M 87.073813 137.933437 L 77.948813 140.855312 L 75.917563 150.214687 L 83.007406 156.656094 L 92.132406 153.734219 L 94.163656 144.374844 Z M 87.073813 137.933437 " transform="matrix(1,0,0,-1,88.559,294.785)"/>
<path style="fill-rule:nonzero;fill:rgb(0%,65.734863%,45.838928%);fill-opacity:1;stroke-width:0.3985;stroke-linecap:butt;stroke-linejoin:miter;stroke:rgb(0%,0%,0%);stroke-opacity:1;stroke-miterlimit:10;" d="M 86.15975 138.226406 L 77.745688 141.788906 L 76.624594 150.859219 L 83.921469 156.363125 L 92.335531 152.800625 L 93.456625 143.730312 Z M 86.15975 138.226406 " transform="matrix(1,0,0,-1,88.559,294.785)"/>
<path style="fill-rule:nonzero;fill:rgb(0%,65.70282%,45.089722%);fill-opacity:1;stroke-width:0.3985;stroke-linecap:butt;stroke-linejoin:miter;stroke:rgb(0%,0%,0%);stroke-opacity:1;stroke-miterlimit:10;" d="M 85.319906 138.581875 L 77.632406 142.695156 L 77.355063 151.41 L 84.761313 156.007656 L 92.444906 151.894375 L 92.726156 143.179531 Z M 85.319906 138.581875 " transform="matrix(1,0,0,-1,88.559,294.785)"/>
<path style="fill-rule:nonzero;fill:rgb(0%,65.66925%,44.343567%);fill-opacity:1;stroke-width:0.3985;stroke-linecap:butt;stroke-linejoin:miter;stroke:rgb(0%,0%,0%);stroke-opacity:1;stroke-miterlimit:10;" d="M 84.550375 138.992031 L 77.605063 143.570156 L 78.09725 151.870937 L 85.530844 155.5975 L 92.476156 151.019375 L 91.983969 142.718594 Z M 84.550375 138.992031 " transform="matrix(1,0,0,-1,88.559,294.785)"/>
<path style="fill-rule:nonzero;fill:rgb(0%,65.635681%,43.59436%);fill-opacity:1;stroke-width:0.3985;stroke-linecap:butt;stroke-linejoin:miter;stroke:rgb(0%,0%,0%);stroke-opacity:1;stroke-miterlimit:10;" d="M 83.855063 139.449062 L 77.655844 144.398281 L 78.839438 152.242031 L 86.226156 155.140469 L 92.425375 150.19125 L 91.241781 142.3475 Z M 83.855063 139.449062 " transform="matrix(1,0,0,-1,88.559,294.785)"/>
<path style="fill-rule:nonzero;fill:rgb(0%,65.603638%,42.84668%);fill-opacity:1;stroke-width:0.3985;stroke-linecap:butt;stroke-linejoin:miter;stroke:rgb(0%,0%,0%);stroke-opacity:1;stroke-miterlimit:10;" d="M 83.233969 139.945156 L 77.773031 145.183437 L 79.577719 152.531094 L 86.843344 154.644375 L 92.308188 149.406094 L 90.5035 142.058437 Z M 83.233969 139.945156 " transform="matrix(1,0,0,-1,88.559,294.785)"/>
<path style="fill-rule:nonzero;fill:rgb(0%,65.570068%,42.097473%);fill-opacity:1;stroke-width:0.3985;stroke-linecap:butt;stroke-linejoin:miter;stroke:rgb(0%,0%,0%);stroke-opacity:1;stroke-miterlimit:10;" d="M 82.691 140.468594 L 77.952719 145.917812 L 80.304281 152.742031 L 87.390219 154.120937 L 92.1285 148.671719 L 89.776938 141.8475 Z M 82.691 140.468594 " transform="matrix(1,0,0,-1,88.559,294.785)"/>
<path style="fill-rule:nonzero;fill:rgb(0%,65.538025%,41.348267%);fill-opacity:1;stroke-width:0.3985;stroke-linecap:butt;stroke-linejoin:miter;stroke:rgb(0%,0%,0%);stroke-opacity:1;stroke-miterlimit:10;" d="M 82.214438 141.015469 L 78.191 146.601406 L 81.015219 152.882656 L 87.866781 153.574062 L 91.890219 147.988125 L 89.066 141.706875 Z M 82.214438 141.015469 " transform="matrix(1,0,0,-1,88.559,294.785)"/>
<path style="fill-rule:nonzero;fill:rgb(0%,65.504456%,40.600586%);fill-opacity:1;stroke-width:0.3985;stroke-linecap:butt;stroke-linejoin:miter;stroke:rgb(0%,0%,0%);stroke-opacity:1;stroke-miterlimit:10;" d="M 81.812094 141.574062 L 78.47225 147.230312 L 81.698813 152.949062 L 88.269125 153.015469 L 91.608969 147.359219 L 88.382406 141.640469 Z M 81.812094 141.574062 " transform="matrix(1,0,0,-1,88.559,294.785)"/>
<path style="fill-rule:nonzero;fill:rgb(0%,65.472412%,39.852905%);fill-opacity:1;stroke-width:0.3985;stroke-linecap:butt;stroke-linejoin:miter;stroke:rgb(0%,0%,0%);stroke-opacity:1;stroke-miterlimit:10;" d="M 81.480063 142.140469 L 78.792563 147.800625 L 82.355063 152.956875 L 88.601156 152.452969 L 91.28475 146.788906 L 87.726156 141.632656 Z M 81.480063 142.140469 " transform="matrix(1,0,0,-1,88.559,294.785)"/>
<path style="fill-rule:nonzero;fill:rgb(0%,65.438843%,39.105225%);fill-opacity:1;stroke-width:0.3985;stroke-linecap:butt;stroke-linejoin:miter;stroke:rgb(0%,0%,0%);stroke-opacity:1;stroke-miterlimit:10;" d="M 81.210531 142.702969 L 79.151938 148.31625 L 82.980063 152.906094 L 88.870688 151.886562 L 90.929281 146.273281 L 87.101156 141.683437 Z M 81.210531 142.702969 " transform="matrix(1,0,0,-1,88.559,294.785)"/>
<path style="fill-rule:nonzero;fill:rgb(0%,65.406799%,38.356018%);fill-opacity:1;stroke-width:0.3985;stroke-linecap:butt;stroke-linejoin:miter;stroke:rgb(0%,0%,0%);stroke-opacity:1;stroke-miterlimit:10;" d="M 81.0035 143.265469 L 79.53475 148.777187 L 83.569906 152.804531 L 89.077719 151.324062 L 90.546469 145.812344 L 86.511313 141.785 Z M 81.0035 143.265469 " transform="matrix(1,0,0,-1,88.559,294.785)"/>
<path style="fill-rule:nonzero;fill:rgb(0%,65.37323%,37.608337%);fill-opacity:1;stroke-width:0.3985;stroke-linecap:butt;stroke-linejoin:miter;stroke:rgb(0%,0%,0%);stroke-opacity:1;stroke-miterlimit:10;" d="M 80.858969 143.81625 L 79.937094 149.179531 L 84.120688 152.656094 L 89.22225 150.773281 L 90.144125 145.41 L 85.960531 141.933437 Z M 80.858969 143.81625 " transform="matrix(1,0,0,-1,88.559,294.785)"/>
<path style="fill-rule:nonzero;fill:rgb(0%,65.341187%,36.859131%);fill-opacity:1;stroke-width:0.3985;stroke-linecap:butt;stroke-linejoin:miter;stroke:rgb(0%,0%,0%);stroke-opacity:1;stroke-miterlimit:10;" d="M 80.765219 144.351406 L 80.355063 149.527187 L 84.6285 152.468594 L 89.316 150.238125 L 89.726156 145.062344 L 85.448813 142.120937 Z M 80.765219 144.351406 " transform="matrix(1,0,0,-1,88.559,294.785)"/>
<path style="fill-rule:nonzero;fill:rgb(0%,65.307617%,36.11145%);fill-opacity:1;stroke-width:0.3985;stroke-linecap:butt;stroke-linejoin:miter;stroke:rgb(0%,0%,0%);stroke-opacity:1;stroke-miterlimit:10;" d="M 80.726156 144.870937 L 80.78475 149.820156 L 85.09725 152.245937 L 89.355063 149.718594 L 89.296469 144.769375 L 84.980063 142.343594 Z M 80.726156 144.870937 " transform="matrix(1,0,0,-1,88.559,294.785)"/>
<path style="fill-rule:nonzero;fill:rgb(0%,65.274048%,35.362244%);fill-opacity:1;stroke-width:0.3985;stroke-linecap:butt;stroke-linejoin:miter;stroke:rgb(0%,0%,0%);stroke-opacity:1;stroke-miterlimit:10;" d="M 80.730063 145.367031 L 81.214438 150.062344 L 85.523031 151.992031 L 89.351156 149.2225 L 88.866781 144.527187 L 84.554281 142.5975 Z M 80.730063 145.367031 " transform="matrix(1,0,0,-1,88.559,294.785)"/>
<path style="fill-rule:nonzero;fill:rgb(0%,65.242004%,34.614563%);fill-opacity:1;stroke-width:0.3985;stroke-linecap:butt;stroke-linejoin:miter;stroke:rgb(0%,0%,0%);stroke-opacity:1;stroke-miterlimit:10;" d="M 80.776938 145.835781 L 81.644125 150.257656 L 85.905844 151.714687 L 89.300375 148.75375 L 88.437094 144.331875 L 84.175375 142.874844 Z M 80.776938 145.835781 " transform="matrix(1,0,0,-1,88.559,294.785)"/>
<path style="fill-rule:nonzero;fill:rgb(0%,65.208435%,33.866882%);fill-opacity:1;stroke-width:0.3985;stroke-linecap:butt;stroke-linejoin:miter;stroke:rgb(0%,0%,0%);stroke-opacity:1;stroke-miterlimit:10;" d="M 80.866781 146.277187 L 82.069906 150.402187 L 86.245688 151.417812 L 89.214438 148.312344 L 88.007406 144.187344 L 83.835531 143.171719 Z M 80.866781 146.277187 " transform="matrix(1,0,0,-1,88.559,294.785)"/>
<path style="fill-rule:nonzero;fill:rgb(0%,65.176392%,33.119202%);fill-opacity:1;stroke-width:0.3985;stroke-linecap:butt;stroke-linejoin:miter;stroke:rgb(0%,0%,0%);stroke-opacity:1;stroke-miterlimit:10;" d="M 80.987875 146.69125 L 82.487875 150.50375 L 86.542563 151.109219 L 89.093344 147.898281 L 87.593344 144.085781 L 83.538656 143.480312 Z M 80.987875 146.69125 " transform="matrix(1,0,0,-1,88.559,294.785)"/>
<path style="fill-rule:nonzero;fill:rgb(0%,65.142822%,32.369995%);fill-opacity:1;stroke-width:0.3985;stroke-linecap:butt;stroke-linejoin:miter;stroke:rgb(0%,0%,0%);stroke-opacity:1;stroke-miterlimit:10;" d="M 81.136313 147.070156 L 82.894125 150.562344 L 86.800375 150.788906 L 88.944906 147.519375 L 87.187094 144.027187 L 83.280844 143.800625 Z M 81.136313 147.070156 " transform="matrix(1,0,0,-1,88.559,294.785)"/>
</g>
</svg>
